<svg width="18" height="19" viewBox="0 0 18 19" fill="none" xmlns="http://www.w3.org/2000/svg">
<path d="M9.0041 4.66503C6.44875 4.66503 4.38758 6.72619 4.38758 9.28155C4.38758 11.8369 6.44875 13.8981 9.0041 13.8981C11.5595 13.8981 13.6206 11.8369 13.6206 9.28155C13.6206 6.72619 11.5595 4.66503 9.0041 4.66503ZM9.0041 12.2829C7.35276 12.2829 6.00276 10.9369 6.00276 9.28155C6.00276 7.62619 7.34874 6.28021 9.0041 6.28021C10.6595 6.28021 12.0054 7.62619 12.0054 9.28155C12.0054 10.9369 10.6554 12.2829 9.0041 12.2829ZM14.8862 4.47619C14.8862 5.07485 14.4041 5.55298 13.8095 5.55298C13.2108 5.55298 12.7327 5.07083 12.7327 4.47619C12.7327 3.88155 13.2148 3.3994 13.8095 3.3994C14.4041 3.3994 14.8862 3.88155 14.8862 4.47619ZM17.9438 5.56905C17.8755 4.12664 17.5461 2.84896 16.4894 1.79628C15.4367 0.743601 14.159 0.414137 12.7166 0.341815C11.23 0.25744 6.77419 0.25744 5.28758 0.341815C3.84919 0.410119 2.57151 0.739583 1.51482 1.79226C0.45812 2.84494 0.132673 4.12262 0.0603516 5.56503C-0.0240234 7.05164 -0.0240234 11.5074 0.0603516 12.994C0.128655 14.4365 0.45812 15.7141 1.51482 16.7668C2.57151 17.8195 3.84517 18.149 5.28758 18.2213C6.77419 18.3057 11.23 18.3057 12.7166 18.2213C14.159 18.153 15.4367 17.8235 16.4894 16.7668C17.542 15.7141 17.8715 14.4365 17.9438 12.994C18.0282 11.5074 18.0282 7.05565 17.9438 5.56905ZM16.0233 14.5891C15.7099 15.3766 15.1032 15.9833 14.3117 16.3007C13.1264 16.7708 10.3139 16.6623 9.0041 16.6623C7.69428 16.6623 4.87776 16.7668 3.69651 16.3007C2.90901 15.9873 2.30232 15.3807 1.98491 14.5891C1.51482 13.4039 1.6233 10.5914 1.6233 9.28155C1.6233 7.97172 1.51883 5.15521 1.98491 3.97396C2.2983 3.18646 2.90499 2.57976 3.69651 2.26235C4.88178 1.79226 7.69428 1.90074 9.0041 1.90074C10.3139 1.90074 13.1304 1.79628 14.3117 2.26235C15.0992 2.57574 15.7059 3.18244 16.0233 3.97396C16.4934 5.15923 16.3849 7.97172 16.3849 9.28155C16.3849 10.5914 16.4934 13.4079 16.0233 14.5891Z" fill="white"/>
</svg>
