<svg width="11" height="18" viewBox="0 0 11 18" fill="none" xmlns="http://www.w3.org/2000/svg">
<path d="M5.24997 3.24609C6.22263 3.24609 7.01364 4.03711 7.01364 5.00977C7.01364 5.97949 6.22263 6.77051 5.24997 6.77051C4.27732 6.77051 3.4863 5.97949 3.4863 5.00977C3.4863 4.03711 4.27732 3.24609 5.24997 3.24609ZM5.24997 9.2666C7.59958 9.2666 9.50974 7.35645 9.50974 5.00977C9.50974 2.66016 7.59958 0.75 5.24997 0.75C2.90036 0.75 0.993136 2.66016 0.993136 5.00977C0.993136 7.35645 2.90036 9.2666 5.24997 9.2666ZM6.97263 12.7412C7.83982 12.542 8.67478 12.1992 9.44528 11.7158C10.0283 11.3496 10.2041 10.5791 9.83786 9.99609C9.46872 9.41016 8.70114 9.23438 8.11521 9.60352C6.37204 10.6992 4.1279 10.6992 2.38181 9.60352C1.7988 9.23438 1.02829 9.41016 0.662082 9.99609C0.29587 10.5791 0.471651 11.3496 1.05466 11.7158C1.82517 12.1992 2.66013 12.542 3.52732 12.7412L1.14548 15.1201C0.659151 15.6064 0.659151 16.3975 1.14548 16.8838C1.39157 17.127 1.70798 17.25 2.02732 17.25C2.34665 17.25 2.66599 17.127 2.91208 16.8838L5.24997 14.5459L7.59079 16.8838C8.07712 17.373 8.86521 17.373 9.35446 16.8838C9.84079 16.3975 9.84079 15.6064 9.35446 15.1201L6.97263 12.7412Z" fill="white"/>
</svg>
