<svg width="18" height="14" viewBox="0 0 18 14" fill="none" xmlns="http://www.w3.org/2000/svg">
<path d="M17.0284 0.359193C16.3493 0.680027 15.1934 1.28169 14.6126 1.39669C14.5901 1.40253 14.5718 1.41003 14.5501 1.41586C13.8726 0.747526 12.9443 0.33336 11.9168 0.33336C9.84594 0.33336 8.16677 2.01253 8.16677 4.08336C8.16677 4.19253 8.15761 4.39336 8.16677 4.50003C5.48511 4.50003 3.52677 3.10086 2.06094 1.30253C1.86511 1.06086 1.65677 1.18669 1.61344 1.35836C1.51594 1.74669 1.48261 2.39586 1.48261 2.85919C1.48261 4.02669 2.39511 5.17336 3.81594 5.88419C3.55427 5.95169 3.26594 6.00003 2.96594 6.00003C2.61261 6.00003 2.20594 5.90753 1.85011 5.72086C1.71844 5.65169 1.43427 5.67086 1.51844 6.00753C1.85594 7.35669 3.39594 8.30419 4.77177 8.58003C4.45927 8.76419 3.79261 8.72669 3.48594 8.72669C3.37261 8.72669 2.97844 8.70003 2.72344 8.66836C2.49094 8.64003 2.13344 8.70003 2.43261 9.15336C3.07511 10.1259 4.52844 10.7367 5.77927 10.76C4.62761 11.6634 2.74427 11.9934 0.940108 11.9934C0.575108 11.985 0.593441 12.4009 0.887608 12.555C2.21844 13.2534 4.39844 13.6667 5.95594 13.6667C12.1476 13.6667 15.6668 8.94753 15.6668 4.49919C15.6668 4.42753 15.6651 4.27753 15.6626 4.12669C15.6626 4.11169 15.6668 4.09753 15.6668 4.08253C15.6668 4.06003 15.6601 4.03836 15.6601 4.01586C15.6576 3.90253 15.6551 3.79669 15.6526 3.74169C16.1434 3.38753 16.8951 2.77253 17.2751 2.30169C17.4043 2.14169 17.3001 1.94753 17.1243 2.00836C16.6718 2.16586 15.8893 2.47086 15.3993 2.52919C16.3801 1.88003 16.8651 1.31503 17.2818 0.687527C17.4243 0.47336 17.2459 0.25586 17.0284 0.359193Z" fill="white"/>
</svg>
