<svg width="20" height="12" viewBox="0 0 20 12" fill="none" xmlns="http://www.w3.org/2000/svg">
<path d="M18.9235 1.08681C19.052 0.65278 18.9235 0.333336 18.3055 0.333336H16.2603C15.7395 0.333336 15.4999 0.607641 15.3714 0.913197C15.3714 0.913197 14.3298 3.45139 12.8576 5.09722C12.3819 5.57292 12.1631 5.7257 11.9027 5.7257C11.7742 5.7257 11.5763 5.57292 11.5763 5.13889V1.08681C11.5763 0.565975 11.4305 0.333336 10.9999 0.333336H7.78464C7.45825 0.333336 7.26381 0.576391 7.26381 0.802086C7.26381 1.29514 7.99992 1.40972 8.07631 2.79861V5.8125C8.07631 6.47222 7.95825 6.59375 7.69783 6.59375C7.00339 6.59375 5.31589 4.04514 4.31589 1.12847C4.1145 0.562503 3.91658 0.333336 3.39228 0.333336H1.34714C0.763807 0.333336 0.645752 0.607641 0.645752 0.913197C0.645752 1.45486 1.3402 4.14584 3.87839 7.70139C5.56936 10.1285 7.95131 11.4444 10.118 11.4444C11.4201 11.4444 11.5798 11.1528 11.5798 10.6493C11.5798 8.32986 11.4617 8.11111 12.1145 8.11111C12.4166 8.11111 12.9374 8.26389 14.1527 9.43403C15.5416 10.8229 15.7708 11.4444 16.5485 11.4444H18.5937C19.177 11.4444 19.4721 11.1528 19.302 10.5764C18.9131 9.36458 16.2846 6.87153 16.1666 6.70486C15.8645 6.31597 15.9513 6.14236 16.1666 5.79514C16.1701 5.79167 18.6666 2.27778 18.9235 1.08681Z" fill="white"/>
</svg>
